<svg width="112" height="14" viewBox="0 0 112 14" fill="none" xmlns="http://www.w3.org/2000/svg">
<path d="M7.24123 10.4307L9.99942 12.1782C10.352 12.4015 10.7897 12.0693 10.6851 11.6578L9.8882 8.52295C9.86576 8.43564 9.86842 8.34377 9.89587 8.2579C9.92332 8.17203 9.97445 8.09565 10.0434 8.03755L12.5167 5.97892C12.8417 5.70843 12.674 5.16907 12.2565 5.14197L9.0264 4.93234C8.9394 4.92612 8.85595 4.89532 8.78578 4.84352C8.7156 4.79171 8.66159 4.72104 8.63003 4.63973L7.42535 1.60605C7.39261 1.51975 7.33438 1.44544 7.25841 1.39301C7.18244 1.34058 7.09231 1.3125 7 1.3125C6.90769 1.3125 6.81757 1.34058 6.7416 1.39301C6.66562 1.44544 6.6074 1.51975 6.57465 1.60605L5.36998 4.63973C5.33841 4.72104 5.2844 4.79171 5.21423 4.84352C5.14405 4.89532 5.06061 4.92612 4.97361 4.93234L1.74355 5.14197C1.32601 5.16907 1.15826 5.70843 1.48326 5.97892L3.95662 8.03755C4.02555 8.09565 4.07668 8.17203 4.10413 8.2579C4.13158 8.34377 4.13424 8.43564 4.1118 8.52295L3.37277 11.4301C3.24722 11.924 3.77251 12.3227 4.19558 12.0546L6.75877 10.4307C6.83086 10.3848 6.91455 10.3604 7 10.3604C7.08546 10.3604 7.16914 10.3848 7.24123 10.4307V10.4307Z" stroke="#888888" stroke-width="0.875" stroke-linecap="round" stroke-linejoin="round"/>
<path d="M23.625 7H26.25C26.366 7 26.4773 7.04609 26.5594 7.12814C26.6414 7.21019 26.6875 7.32147 26.6875 7.4375V10.9375C26.6875 11.0535 26.6414 11.1648 26.5594 11.2469C26.4773 11.3289 26.366 11.375 26.25 11.375H15.75C15.634 11.375 15.5227 11.3289 15.4406 11.2469C15.3586 11.1648 15.3125 11.0535 15.3125 10.9375V7.4375C15.3125 7.32147 15.3586 7.21019 15.4406 7.12814C15.5227 7.04609 15.634 7 15.75 7H18.375" stroke="#888888" stroke-width="0.875" stroke-linecap="round" stroke-linejoin="round"/>
<path d="M21 7V1.3125" stroke="#888888" stroke-width="0.875" stroke-linecap="round" stroke-linejoin="round"/>
<path d="M18.375 3.9375L21 1.3125L23.625 3.9375" stroke="#888888" stroke-width="0.875" stroke-linecap="round" stroke-linejoin="round"/>
<path d="M24.2812 9.84375C24.6437 9.84375 24.9375 9.54994 24.9375 9.1875C24.9375 8.82506 24.6437 8.53125 24.2812 8.53125C23.9188 8.53125 23.625 8.82506 23.625 9.1875C23.625 9.54994 23.9188 9.84375 24.2812 9.84375Z" fill="#888888"/>
<path d="M37.4062 5.6875L34.1979 8.75L32.5938 7.21875" stroke="#888888" stroke-width="0.875" stroke-linecap="round" stroke-linejoin="round"/>
<path d="M35 12.25C37.8995 12.25 40.25 9.8995 40.25 7C40.25 4.10051 37.8995 1.75 35 1.75C32.1005 1.75 29.75 4.10051 29.75 7C29.75 9.8995 32.1005 12.25 35 12.25Z" stroke="#888888" stroke-width="0.875" stroke-linecap="round" stroke-linejoin="round"/>
<path d="M53.375 2.1875H44.625C44.3834 2.1875 44.1875 2.38338 44.1875 2.625V11.375C44.1875 11.6166 44.3834 11.8125 44.625 11.8125H53.375C53.6166 11.8125 53.8125 11.6166 53.8125 11.375V2.625C53.8125 2.38338 53.6166 2.1875 53.375 2.1875Z" stroke="#888888" stroke-width="0.875" stroke-linecap="round" stroke-linejoin="round"/>
<path d="M51.625 1.3125V3.0625" stroke="#888888" stroke-width="0.875" stroke-linecap="round" stroke-linejoin="round"/>
<path d="M46.375 1.3125V3.0625" stroke="#888888" stroke-width="0.875" stroke-linecap="round" stroke-linejoin="round"/>
<path d="M44.1875 4.8125H53.8125" stroke="#888888" stroke-width="0.875" stroke-linecap="round" stroke-linejoin="round"/>
<path d="M59.7188 11.8125C60.5644 11.8125 61.25 11.1269 61.25 10.2812C61.25 9.43556 60.5644 8.75 59.7188 8.75C58.8731 8.75 58.1875 9.43556 58.1875 10.2812C58.1875 11.1269 58.8731 11.8125 59.7188 11.8125Z" stroke="#888888" stroke-width="0.875" stroke-linecap="round" stroke-linejoin="round"/>
<path d="M66.2812 5.24986C67.1269 5.24986 67.8125 4.5643 67.8125 3.71861C67.8125 2.87293 67.1269 2.18736 66.2812 2.18736C65.4356 2.18736 64.75 2.87293 64.75 3.71861C64.75 4.5643 65.4356 5.24986 66.2812 5.24986Z" stroke="#888888" stroke-width="0.875" stroke-linecap="round" stroke-linejoin="round"/>
<path d="M59.7188 5.24986C60.5644 5.24986 61.25 4.5643 61.25 3.71861C61.25 2.87293 60.5644 2.18736 59.7188 2.18736C58.8731 2.18736 58.1875 2.87293 58.1875 3.71861C58.1875 4.5643 58.8731 5.24986 59.7188 5.24986Z" stroke="#888888" stroke-width="0.875" stroke-linecap="round" stroke-linejoin="round"/>
<path d="M59.7188 8.75V8.31249C59.7188 7.9644 59.857 7.63058 60.1032 7.38445C60.3493 7.13832 60.6831 7.00004 61.0312 7.00004L64.9688 6.99996C65.3169 6.99996 65.6507 6.86168 65.8968 6.61555C66.143 6.36942 66.2812 6.0356 66.2812 5.68751V5.25" stroke="#888888" stroke-width="0.875" stroke-linecap="round" stroke-linejoin="round"/>
<path d="M59.7188 5.25V8.75" stroke="#888888" stroke-width="0.875" stroke-linecap="round" stroke-linejoin="round"/>
<path d="M81.8129 3.9375H72.1879C71.9463 3.9375 71.7504 4.13338 71.7504 4.375V11.375C71.7504 11.6166 71.9463 11.8125 72.1879 11.8125H81.8129C82.0546 11.8125 82.2504 11.6166 82.2504 11.375V4.375C82.2504 4.13338 82.0546 3.9375 81.8129 3.9375Z" stroke="#888888" stroke-width="0.875" stroke-linecap="round" stroke-linejoin="round"/>
<path d="M79.1875 3.9375V3.0625C79.1875 2.83044 79.0953 2.60788 78.9312 2.44378C78.7671 2.27969 78.5446 2.1875 78.3125 2.1875H75.6875C75.4554 2.1875 75.2329 2.27969 75.0688 2.44378C74.9047 2.60788 74.8125 2.83044 74.8125 3.0625V3.9375" stroke="#888888" stroke-width="0.875" stroke-linecap="round" stroke-linejoin="round"/>
<path d="M77 6.34375V9.40625" stroke="#888888" stroke-width="0.875" stroke-linecap="round" stroke-linejoin="round"/>
<path d="M78.5312 7.875H75.4688" stroke="#888888" stroke-width="0.875" stroke-linecap="round" stroke-linejoin="round"/>
<path d="M97.125 6.5625H93.625V4.375H95.9538C96.0412 4.375 96.1267 4.4012 96.1991 4.45022C96.2715 4.49924 96.3275 4.56883 96.36 4.65002L97.125 6.5625Z" stroke="#888888" stroke-width="0.875" stroke-linecap="round" stroke-linejoin="round"/>
<path d="M84.875 7.875H93.625" stroke="#888888" stroke-width="0.875" stroke-linecap="round" stroke-linejoin="round"/>
<path d="M94.2812 11.8125C95.0061 11.8125 95.5938 11.2249 95.5938 10.5C95.5938 9.77513 95.0061 9.1875 94.2812 9.1875C93.5564 9.1875 92.9688 9.77513 92.9688 10.5C92.9688 11.2249 93.5564 11.8125 94.2812 11.8125Z" stroke="#888888" stroke-width="0.875" stroke-miterlimit="10"/>
<path d="M87.7188 11.8125C88.4436 11.8125 89.0312 11.2249 89.0312 10.5C89.0312 9.77513 88.4436 9.1875 87.7188 9.1875C86.9939 9.1875 86.4062 9.77513 86.4062 10.5C86.4062 11.2249 86.9939 11.8125 87.7188 11.8125Z" stroke="#888888" stroke-width="0.875" stroke-miterlimit="10"/>
<path d="M92.9688 10.5H89.0312" stroke="#888888" stroke-width="0.875" stroke-linecap="round" stroke-linejoin="round"/>
<path d="M86.4062 10.5H85.3125C85.1965 10.5 85.0852 10.4539 85.0031 10.3719C84.9211 10.2898 84.875 10.1785 84.875 10.0625V3.9375C84.875 3.82147 84.9211 3.71019 85.0031 3.62814C85.0852 3.54609 85.1965 3.5 85.3125 3.5H93.625V9.36332" stroke="#888888" stroke-width="0.875" stroke-linecap="round" stroke-linejoin="round"/>
<path d="M93.625 9.36332V6.5625H97.125V10.0625C97.125 10.1785 97.0789 10.2898 96.9969 10.3719C96.9148 10.4539 96.8035 10.5 96.6875 10.5H95.5938" stroke="#888888" stroke-width="0.875" stroke-linecap="round" stroke-linejoin="round"/>
<path d="M99.75 3.0625H110.25V10.5C110.25 10.616 110.204 10.7273 110.122 10.8094C110.04 10.8914 109.929 10.9375 109.812 10.9375H100.188C100.071 10.9375 99.9602 10.8914 99.8782 10.8094C99.7961 10.7273 99.75 10.616 99.75 10.5V3.0625Z" stroke="#888888" stroke-width="0.875" stroke-linecap="round" stroke-linejoin="round"/>
<path d="M99.75 5.6875H110.25" stroke="#888888" stroke-width="0.875" stroke-linecap="round" stroke-linejoin="round"/>
<path d="M99.75 8.3125H110.25" stroke="#888888" stroke-width="0.875" stroke-linecap="round" stroke-linejoin="round"/>
<path d="M102.812 5.6875V10.9375" stroke="#888888" stroke-width="0.875" stroke-linecap="round" stroke-linejoin="round"/>
</svg>
