<svg width="126" height="14" viewBox="0 0 126 14" fill="none" xmlns="http://www.w3.org/2000/svg">
<path d="M7.52214 1.199C7.42339 1.00005 7.22023 0.874431 6.99812 0.875002C6.77601 0.875573 6.57349 1.00223 6.47577 1.20169L4.82826 4.56452L1.08298 5.10761C0.863362 5.13946 0.680834 5.29316 0.612071 5.50415C0.543307 5.71515 0.600221 5.94688 0.758904 6.10202L3.47274 8.75517L2.82471 12.4406C2.78607 12.6604 2.87614 12.8829 3.05672 13.0139C3.23731 13.1448 3.47679 13.1614 3.67365 13.0564L6.99965 11.2833L10.3264 13.0564C10.5231 13.1613 10.7625 13.1449 10.943 13.0141C11.1235 12.8833 11.2137 12.661 11.1754 12.4414L10.532 8.75518L13.2415 6.10167C13.3999 5.94651 13.4567 5.71496 13.388 5.50413C13.3193 5.2933 13.137 5.13967 12.9175 5.10768L9.19245 4.56451L7.52214 1.199Z" fill="#185BDE"/>
<path d="M28.6625 1.33751C28.8903 1.56532 28.8903 1.93466 28.6625 2.16247L27.5749 3.25002C27.9904 3.88449 28.0602 4.57788 27.97 5.17361C27.8622 5.88486 27.5201 6.51348 27.2041 6.82942L26.3291 7.70444C26.1013 7.93224 25.732 7.93224 25.5042 7.70444L22.2958 4.4961C22.1864 4.38671 22.125 4.23834 22.125 4.08363C22.125 3.92892 22.1864 3.78054 22.2958 3.67115L23.1708 2.79616C23.4868 2.4802 24.1154 2.13806 24.8267 2.0303C25.4223 1.94005 26.1155 2.00986 26.7499 2.42512L27.8375 1.33751C28.0653 1.10971 28.4347 1.10971 28.6625 1.33751Z" fill="#185BDE"/>
<path d="M20.4958 6.29584C20.3864 6.18645 20.238 6.12499 20.0833 6.12499C19.9286 6.12499 19.7802 6.18645 19.6708 6.29584L18.7958 7.17086C18.4799 7.48681 18.1378 8.11542 18.03 8.82668C17.9398 9.42235 18.0096 10.1157 18.4249 10.7501L17.3375 11.8375C17.1097 12.0653 17.1097 12.4347 17.3375 12.6625C17.5653 12.8903 17.9347 12.8903 18.1625 12.6625L19.2499 11.575C19.8843 11.9904 20.5776 12.0602 21.1733 11.97C21.8846 11.8622 22.5132 11.5201 22.8292 11.2041L23.7041 10.3291C23.9319 10.1013 23.9319 9.73198 23.7041 9.50418L23.5333 9.33332L24.2875 8.57914C24.5153 8.35133 24.5153 7.98198 24.2875 7.75418C24.0597 7.52637 23.6903 7.52637 23.4625 7.75418L22.7083 8.50836L21.4916 7.29165L22.2458 6.53747C22.4736 6.30966 22.4736 5.94032 22.2458 5.71251C22.018 5.48471 21.6487 5.48471 21.4208 5.71251L20.6667 6.4667L20.4958 6.29584Z" fill="#185BDE"/>
<path fill-rule="evenodd" clip-rule="evenodd" d="M32.5833 2.04168C32.5833 1.23626 33.2363 0.583344 34.0417 0.583344H43.9583C44.7638 0.583344 45.4167 1.23626 45.4167 2.04168V11.9583C45.4167 12.7638 44.7638 13.4167 43.9583 13.4167H34.0417C33.2363 13.4167 32.5833 12.7638 32.5833 11.9583V2.04168ZM35.5 2.91668C35.1778 2.91668 34.9167 3.17784 34.9167 3.50001V5.83334C34.9167 6.15551 35.1778 6.41668 35.5 6.41668H37.8333C38.1555 6.41668 38.4167 6.15551 38.4167 5.83334V3.50001C38.4167 3.17784 38.1555 2.91668 37.8333 2.91668H35.5ZM39.5833 3.50001C39.5833 3.17784 39.8445 2.91668 40.1667 2.91668H42.5C42.8222 2.91668 43.0833 3.17784 43.0833 3.50001C43.0833 3.82218 42.8222 4.08334 42.5 4.08334H40.1667C39.8445 4.08334 39.5833 3.82218 39.5833 3.50001ZM39.5833 5.83334C39.5833 5.51118 39.8445 5.25001 40.1667 5.25001H42.5C42.8222 5.25001 43.0833 5.51118 43.0833 5.83334C43.0833 6.15551 42.8222 6.41668 42.5 6.41668H40.1667C39.8445 6.41668 39.5833 6.15551 39.5833 5.83334ZM34.9167 8.16668C34.9167 7.84451 35.1778 7.58334 35.5 7.58334H42.5C42.8222 7.58334 43.0833 7.84451 43.0833 8.16668C43.0833 8.48884 42.8222 8.75001 42.5 8.75001H35.5C35.1778 8.75001 34.9167 8.48884 34.9167 8.16668ZM34.9167 10.5C34.9167 10.1778 35.1778 9.91668 35.5 9.91668H42.5C42.8222 9.91668 43.0833 10.1778 43.0833 10.5C43.0833 10.8222 42.8222 11.0833 42.5 11.0833H35.5C35.1778 11.0833 34.9167 10.8222 34.9167 10.5Z" fill="#185BDE"/>
<path fill-rule="evenodd" clip-rule="evenodd" d="M53.25 1.16668C53.25 0.844511 52.9888 0.583344 52.6667 0.583344C52.3445 0.583344 52.0833 0.844511 52.0833 1.16668V1.45834H50.0417C49.3973 1.45834 48.875 1.98068 48.875 2.62501V11.6667C48.875 12.311 49.3973 12.8333 50.0417 12.8333H59.9583C60.6027 12.8333 61.125 12.311 61.125 11.6667V2.62501C61.125 1.98068 60.6027 1.45834 59.9583 1.45834H57.9167V1.16668C57.9167 0.844511 57.6555 0.583344 57.3333 0.583344C57.0112 0.583344 56.75 0.844511 56.75 1.16668V1.45834H53.25V1.16668ZM59.9583 4.95834V2.62501H57.9167V3.50001C57.9167 3.82218 57.6555 4.08334 57.3333 4.08334C57.0112 4.08334 56.75 3.82218 56.75 3.50001V2.62501H53.25V3.50001C53.25 3.82218 52.9888 4.08334 52.6667 4.08334C52.3445 4.08334 52.0833 3.82218 52.0833 3.50001V2.62501H50.0417V4.95834H59.9583ZM55.5833 9.91668C55.5833 9.59451 55.8445 9.33334 56.1667 9.33334H57.9167C58.2388 9.33334 58.5 9.59451 58.5 9.91668C58.5 10.2388 58.2388 10.5 57.9167 10.5H56.1667C55.8445 10.5 55.5833 10.2388 55.5833 9.91668ZM52.0833 9.33334C51.7612 9.33334 51.5 9.59451 51.5 9.91668C51.5 10.2388 51.7612 10.5 52.0833 10.5H53.8333C54.1555 10.5 54.4167 10.2388 54.4167 9.91668C54.4167 9.59451 54.1555 9.33334 53.8333 9.33334H52.0833ZM55.5833 7.58334C55.5833 7.26118 55.8445 7.00001 56.1667 7.00001H57.9167C58.2388 7.00001 58.5 7.26118 58.5 7.58334C58.5 7.90551 58.2388 8.16668 57.9167 8.16668H56.1667C55.8445 8.16668 55.5833 7.90551 55.5833 7.58334ZM52.0833 7.00001C51.7612 7.00001 51.5 7.26118 51.5 7.58334C51.5 7.90551 51.7612 8.16668 52.0833 8.16668H53.8333C54.1555 8.16668 54.4167 7.90551 54.4167 7.58334C54.4167 7.26118 54.1555 7.00001 53.8333 7.00001H52.0833Z" fill="#185BDE"/>
<path fill-rule="evenodd" clip-rule="evenodd" d="M64.5833 2.04168C64.5833 1.23626 65.2362 0.583344 66.0417 0.583344H75.9583C76.7637 0.583344 77.4167 1.23626 77.4167 2.04168V11.9583C77.4167 12.7638 76.7637 13.4167 75.9583 13.4167H66.0417C65.2362 13.4167 64.5833 12.7638 64.5833 11.9583V2.04168ZM72.1667 4.08334C72.1667 3.11685 72.9502 2.33334 73.9167 2.33334C74.8832 2.33334 75.6667 3.11685 75.6667 4.08334C75.6667 4.44161 75.5151 4.84643 75.3134 5.24972C75.1018 5.67285 74.7933 6.17388 74.3966 6.74821C74.2877 6.90589 74.1083 7.00001 73.9167 7.00001C73.725 7.00001 73.5456 6.90589 73.4367 6.74821C73.04 6.17388 72.7315 5.67285 72.5199 5.24972C72.3183 4.84643 72.1667 4.44161 72.1667 4.08334ZM66.3333 6.70834C66.3333 5.74184 67.1168 4.95834 68.0833 4.95834C69.0498 4.95834 69.8333 5.74184 69.8333 6.70834C69.8333 7.06661 69.6817 7.47143 69.4801 7.87472C69.2685 8.29785 68.96 8.79888 68.5633 9.37321C68.4544 9.53088 68.275 9.62501 68.0833 9.62501C67.8917 9.62501 67.7123 9.53088 67.6034 9.37321C67.2066 8.79888 66.8981 8.29785 66.6866 7.87472C66.4849 7.47143 66.3333 7.06661 66.3333 6.70834ZM75.0083 8.70816C75.3074 8.58851 75.4529 8.24903 75.3333 7.9499C75.2136 7.65078 74.8742 7.50529 74.575 7.62494L74.2712 7.74646C73.9721 7.86611 73.8266 8.2056 73.9462 8.50472C74.0659 8.80384 74.4054 8.94934 74.7045 8.82969L75.0083 8.70816ZM72.8816 9.55885C73.1807 9.4392 73.3262 9.09972 73.2065 8.8006C73.0869 8.50147 72.7474 8.35598 72.4483 8.47563L71.8407 8.71869C71.5415 8.83834 71.396 9.17782 71.5157 9.47694C71.6353 9.77607 71.9748 9.92156 72.2739 9.80191L72.8816 9.55885ZM70.451 10.5311C70.7502 10.4114 70.8956 10.0719 70.776 9.77282C70.6563 9.4737 70.3169 9.3282 70.0177 9.44785L69.4101 9.69091C69.111 9.81056 68.9655 10.15 69.0851 10.4492C69.2048 10.7483 69.5443 10.8938 69.8434 10.7741L70.451 10.5311ZM68.0205 11.5033C68.3196 11.3836 68.4651 11.0442 68.3454 10.745C68.2258 10.4459 67.8863 10.3004 67.5872 10.4201L67.2834 10.5416C66.9842 10.6613 66.8387 11.0007 66.9584 11.2999C67.078 11.599 67.4175 11.7445 67.7167 11.6248L68.0205 11.5033Z" fill="#185BDE"/>
<path fill-rule="evenodd" clip-rule="evenodd" d="M80.5833 1.48486C80.5833 1.03578 80.9283 0.583344 81.4583 0.583344H92.5417C93.0717 0.583344 93.4167 1.03579 93.4167 1.48486V4.3485C93.4167 4.79758 93.0717 5.25001 92.5417 5.25001H84.6667V6.41936L89.9169 6.42169C90.239 6.42184 90.5 6.68296 90.5 7.00503V8.75001H92.5417C93.0717 8.75001 93.4167 9.20244 93.4167 9.65152V12.5152C93.4167 12.9642 93.0717 13.4167 92.5417 13.4167H81.4583C80.9284 13.4167 80.5833 12.9643 80.5833 12.5152V9.65152C80.5833 9.20243 80.9284 8.75001 81.4583 8.75001H89.3333V7.5881L84.0831 7.58576C83.761 7.58562 83.5 7.3245 83.5 7.00243V5.25001H81.4583C80.9284 5.25001 80.5833 4.79759 80.5833 4.3485V1.48486ZM84.6667 11.0833C84.6667 10.7612 84.9278 10.5 85.25 10.5H88.75C89.0722 10.5 89.3333 10.7612 89.3333 11.0833C89.3333 11.4055 89.0722 11.6667 88.75 11.6667H85.25C84.9278 11.6667 84.6667 11.4055 84.6667 11.0833ZM85.25 2.33334C84.9278 2.33334 84.6667 2.59451 84.6667 2.91668C84.6667 3.23884 84.9278 3.50001 85.25 3.50001H88.75C89.0722 3.50001 89.3333 3.23884 89.3333 2.91668C89.3333 2.59451 89.0722 2.33334 88.75 2.33334H85.25Z" fill="#185BDE"/>
<path d="M102.955 0.584964L103.04 0.584564L103.104 0.592569L103.182 0.612424L103.245 0.636893L103.292 0.661485L108.39 3.60776L108.451 3.65802L108.515 3.72789L108.562 3.80069L108.601 3.8866L108.625 3.97337L108.633 4.03642L108.635 4.07757L108.634 9.95535L108.632 9.97993L108.635 9.91667L108.634 9.95665L108.619 10.0526L108.595 10.1284L108.573 10.1792L108.541 10.2342L108.51 10.2772L108.452 10.3416L108.408 10.3787L108.373 10.4039L108.344 10.4218L103.292 13.3385L103.257 13.3571L103.194 13.3834L103.156 13.3954L103.073 13.4123L102.992 13.4168L102.896 13.4074L102.832 13.392L102.749 13.3601L102.708 13.3385L97.6381 10.4108L97.5907 10.3778L97.5432 10.3366L97.5073 10.2988L97.4588 10.2343L97.4289 10.1824L97.3936 10.0976L97.3718 10.0063L97.3649 9.92849V4.08333L97.3663 4.04334L97.3735 3.98378L97.4032 3.87504L97.432 3.81148L97.4641 3.75777L97.5259 3.6809L97.5834 3.62815L97.6184 3.60219L97.5652 3.64341L97.5959 3.61837L97.6566 3.57815L102.745 0.642238L102.833 0.607739L102.912 0.590045L102.955 0.584964ZM100.941 8.75117L99.0847 9.89917L101.924 11.5383L100.941 8.75117ZM105.059 8.75117L104.076 11.5383L106.915 9.89917L105.059 8.75117ZM103.925 8.45833H102.074L103 11.081L103.925 8.45833ZM98.5311 5.64083V8.87017L100.359 7.73967L98.5311 5.64083ZM107.468 5.64083L105.641 7.73967L107.468 8.87017V5.64083ZM102.999 6.09175L102.28 7.29167H103.719L102.999 6.09175ZM99.4656 4.93792L101.163 6.88625L102.061 5.38767L99.4656 4.93792ZM106.534 4.93792L103.938 5.38767L104.837 6.88625L106.534 4.93792ZM102.417 2.177L99.6342 3.78292L102.417 4.26475V2.177ZM103.583 2.177V4.26475L106.365 3.78292L103.583 2.177Z" fill="#185BDE"/>
<path d="M122.037 5.66247C122.265 5.43466 122.265 5.06532 122.037 4.83751C121.81 4.60971 121.44 4.60971 121.213 4.83751L118.125 7.92503L116.787 6.58751C116.56 6.35971 116.19 6.35971 115.963 6.58751C115.735 6.81532 115.735 7.18466 115.963 7.41247L117.713 9.16247C117.94 9.39028 118.31 9.39028 118.537 9.16247L122.037 5.66247Z" fill="#185BDE"/>
<path fill-rule="evenodd" clip-rule="evenodd" d="M113.75 1.16666C113.428 1.16666 113.167 1.42782 113.167 1.74999V12.25C113.167 12.5722 113.428 12.8333 113.75 12.8333H124.25C124.572 12.8333 124.833 12.5722 124.833 12.25V1.74999C124.833 1.42782 124.572 1.16666 124.25 1.16666H120.75C120.515 1.16666 120.303 1.3077 120.212 1.52445C120.045 1.92406 119.853 2.17696 119.661 2.32857C119.478 2.47331 119.266 2.54851 119 2.54851C118.734 2.54851 118.522 2.47331 118.339 2.32857C118.147 2.17696 117.956 1.92406 117.788 1.52445C117.697 1.3077 117.485 1.16666 117.25 1.16666H113.75ZM114.333 11.6667V2.33332H116.881C117.076 2.69845 117.318 3.00877 117.616 3.2442C118.016 3.56008 118.486 3.71518 119 3.71518C119.514 3.71518 119.984 3.56008 120.384 3.2442C120.682 3.00877 120.924 2.69845 121.119 2.33332H123.667V11.6667H114.333Z" fill="#185BDE"/>
</svg>
