<svg width="904" height="142" viewBox="0 0 904 142" fill="none" xmlns="http://www.w3.org/2000/svg">
<g clip-path="url(#clip0)">
<path d="M59.9842 70.5077L46.1925 114.463H26.3648L-0.358643 35.1603H23.7769L37.5686 81.7114L52.2284 35.1603H67.74L82.3917 81.7114L96.1834 35.1603H120.319L93.5954 114.463H73.7759L59.9842 70.5077ZM158.883 33.4404C181.29 33.4404 199.39 51.5481 199.39 74.8156C199.39 98.083 181.29 116.191 158.883 116.191C136.475 116.191 118.376 98.0911 118.376 74.8156C118.376 51.54 136.5 33.4404 158.883 33.4404ZM158.883 54.988C149.399 54.988 141.643 62.7438 141.643 74.8156C141.643 86.8874 149.423 94.6026 158.883 94.6026C168.342 94.6026 176.122 86.8468 176.122 74.7831C176.122 62.7194 168.391 54.988 158.883 54.988ZM255.358 35.1603V59.2958C252.637 58.1195 249.697 57.5329 246.734 57.5759C238.118 57.5759 232.082 63.6118 232.082 73.9556V114.463H208.815V35.1603H226.03L229.486 43.7842C229.486 43.7842 236.374 34.3004 248.446 34.3004C250.78 34.2485 253.108 34.5381 255.358 35.1603ZM313.161 114.463L289.026 79.1235V114.463H265.783V5.86511H289.058V67.0192L310.606 35.1279H337.329L310.606 73.0551L339.909 114.43L313.161 114.463ZM427.095 74.8156C427.095 98.0911 409.847 115.331 390.028 115.331C382.825 115.323 375.837 112.878 370.2 108.394V142.014H346.933V35.1603H364.164L367.62 42.9243C373.782 37.4043 381.755 34.3361 390.028 34.3004C409.847 34.3004 427.095 51.5481 427.095 74.8156ZM386.58 55.856C377.104 55.856 369.34 63.6118 369.34 74.8156C369.34 86.0193 377.104 93.7914 386.58 93.7914C396.055 93.7914 403.819 86.0356 403.819 74.8318C403.819 63.6281 396.055 55.856 386.58 55.856ZM434.487 74.8156C434.487 51.5481 451.727 34.3004 471.547 34.3004C479.822 34.3369 487.796 37.4051 493.962 42.9243L497.402 35.1603H514.642V114.463H497.402L493.962 106.707C487.796 112.226 479.822 115.294 471.547 115.331C451.727 115.331 434.487 98.0911 434.487 74.8156ZM474.995 93.7914C484.478 93.7914 492.234 86.0356 492.234 74.8318C492.234 63.6281 484.478 55.8722 474.995 55.8722C465.511 55.8722 457.755 63.6281 457.755 74.8318C457.755 86.0356 465.511 93.7914 474.995 93.7914ZM537.106 56.716H525.034V36.8884H531.07C537.106 36.8884 540.554 33.4404 540.554 27.4045V16.2008H560.382V35.1603H576.753V56.716H560.382V82.5714C560.382 89.4672 564.689 93.7751 570.717 93.7751C572.762 93.7832 574.79 93.4936 576.753 92.9152V113.603C573.135 114.779 569.354 115.362 565.549 115.331C547.45 115.331 537.106 104.979 537.106 86.0193V56.716ZM609.421 42.9243C609.421 42.9243 616.317 34.3004 631.829 34.3004C649.068 34.3004 662 47.2321 662 67.9197V114.463H638.733V72.2276C638.733 61.8838 632.697 55.856 624.073 55.856C615.449 55.856 609.421 61.8838 609.421 72.2276V114.463H586.146V5.86511H609.421V42.9243Z" fill="#212429"/>
<path fill-rule="evenodd" clip-rule="evenodd" d="M862.317 74.5151C862.317 97.7908 845.069 115.03 825.249 115.03C818.047 115.022 811.058 112.578 805.422 108.094V141.713H782.154V34.86H799.386L802.842 42.6239C809.003 37.104 816.977 34.0356 825.249 34C845.069 34 862.317 51.2478 862.317 74.5151ZM821.801 55.5557C812.326 55.5557 804.562 63.3115 804.562 74.5153C804.562 85.719 812.326 93.491 821.801 93.491C831.277 93.491 839.041 85.7352 839.041 74.5315C839.041 63.3278 831.277 55.5557 821.801 55.5557Z" fill="#185BDE"/>
<path fill-rule="evenodd" clip-rule="evenodd" d="M683 74.5151C683 51.2478 700.24 34 720.059 34C728.334 34.0365 736.309 37.1047 742.475 42.6239L745.915 34.86H763.154V114.162H745.915L742.475 106.406C736.309 111.926 728.334 114.994 720.059 115.03C700.24 115.03 683 97.7908 683 74.5151ZM723.507 93.491C732.991 93.491 740.747 85.7352 740.747 74.5315C740.747 63.3278 732.991 55.5719 723.507 55.5719C714.023 55.5719 706.267 63.3278 706.267 74.5315C706.267 85.7352 714.023 93.491 723.507 93.491Z" fill="#185BDE"/>
<path d="M881.317 34H904.317V115H881.317V34Z" fill="#185BDE"/>
<path d="M904.317 11.5C904.317 17.8513 899.168 23 892.817 23C886.465 23 881.317 17.8513 881.317 11.5C881.317 5.14873 886.465 0 892.817 0C899.168 0 904.317 5.14873 904.317 11.5Z" fill="#185BDE"/>
</g>
<defs>
<clipPath id="clip0">
<rect width="904" height="142" fill="white"/>
</clipPath>
</defs>
</svg>
